<?xml version="1.0" encoding="utf-8"?>
<!-- Generator: Adobe Illustrator 23.0.1, SVG Export Plug-In . SVG Version: 6.00 Build 0)  -->
<svg version="1.1" id="Capa_1" xmlns="http://www.w3.org/2000/svg" xmlns:xlink="http://www.w3.org/1999/xlink" x="0px" y="0px"
	 viewBox="0 0 748 187" style="enable-background:new 0 0 748 187;" xml:space="preserve">
<style type="text/css">
	.st0{fill:#D29D61;}
	.st1{fill:none;stroke:#D29D61;stroke-width:1.9673;stroke-miterlimit:10;}
</style>
<g>
	<path class="st0" d="M47.28,146.46h8.49V94.12h-4.44c-1.02,0-2.17,0.09-3.44,0.27c-1.27,0.18-2.56,0.68-3.86,1.49
		c-1.3,0.82-2.55,2.1-3.75,3.87c-1.2,1.76-2.23,4.19-3.1,7.31h-0.84v-14h46.53v14h-0.84c-0.87-3.11-1.9-5.55-3.1-7.31
		c-1.2-1.76-2.45-3.05-3.75-3.87c-1.3-0.81-2.59-1.31-3.86-1.49c-1.28-0.18-2.42-0.27-3.44-0.27h-4.44v52.34h8.49v1.07H47.28V146.46
		z"/>
	<path class="st0" d="M88.06,146.46h8.49V94.12h-8.49v-1.07h24.64v1.07h-8.49v25.02h25.48V94.12h-8.49v-1.07h24.64v1.07h-8.49v52.34
		h8.49v1.07H121.2v-1.07h8.49v-26.25h-25.48v26.25h8.49v1.07H88.06V146.46z"/>
	<path class="st0" d="M150.43,146.46h8.49V94.12h-8.49v-1.07h43.77v13.24h-0.84c-0.66-1.99-1.38-3.74-2.14-5.24
		c-0.77-1.5-1.68-2.78-2.76-3.83c-1.07-1.04-2.35-1.82-3.82-2.33c-1.48-0.51-3.27-0.77-5.36-0.77h-12.7v23.64h4.98
		c1.68,0,3.11-0.15,4.28-0.46c1.17-0.31,2.18-0.88,3.02-1.72c0.84-0.84,1.55-1.99,2.14-3.44c0.59-1.45,1.16-3.33,1.72-5.63h0.84
		v23.8h-0.84c-0.36-1.48-0.73-2.91-1.11-4.29c-0.38-1.38-0.92-2.6-1.61-3.67c-0.69-1.07-1.61-1.93-2.76-2.56
		c-1.15-0.64-2.64-0.96-4.48-0.96h-6.2v27.63h14.47c2.8,0,5.14-0.6,7-1.8c1.86-1.2,3.38-2.63,4.56-4.29
		c1.17-1.66,2.04-3.38,2.6-5.16c0.56-1.79,0.92-3.27,1.07-4.44h0.84v16.76h-46.68V146.46z"/>
	<path class="st0" d="M225.57,146.46h8.49V94.12h-8.49v-1.07h13.39c0.77,0,1.54-0.01,2.33-0.04c0.79-0.02,1.59-0.07,2.41-0.12
		c0.82,0,1.61-0.01,2.37-0.04c0.77-0.02,1.5-0.04,2.22-0.04c3.72,0,6.78,0.45,9.18,1.34c2.4,0.89,4.29,1.99,5.66,3.29
		c1.38,1.3,2.32,2.71,2.83,4.21c0.51,1.5,0.77,2.87,0.77,4.09c0,1.68-0.37,3.24-1.11,4.67c-0.74,1.43-1.73,2.68-2.99,3.75
		c-1.25,1.07-2.69,1.94-4.32,2.6c-1.63,0.66-3.34,1.1-5.13,1.3v0.15c1.84,0.15,3.71,0.55,5.62,1.19c1.91,0.64,3.65,1.53,5.21,2.68
		c1.56,1.15,2.82,2.56,3.79,4.25c0.97,1.68,1.45,3.62,1.45,5.82c0,2.3-0.43,4.4-1.3,6.31c-0.87,1.91-2.17,3.56-3.9,4.94
		c-1.73,1.38-3.93,2.46-6.58,3.25c-2.65,0.79-5.74,1.19-9.26,1.19c-0.71,0-1.42-0.02-2.1-0.04c-0.69-0.02-1.42-0.07-2.18-0.11
		c-0.77-0.05-1.56-0.09-2.37-0.12c-0.82-0.03-1.68-0.04-2.6-0.04h-13.39V146.46z M241.72,117.76h7.04c1.43,0,2.73-0.18,3.9-0.53
		c1.17-0.36,2.18-0.98,3.02-1.88c0.84-0.89,1.49-2.1,1.95-3.64c0.46-1.53,0.69-3.47,0.69-5.81c0-2.65-0.34-4.78-1.03-6.39
		c-0.69-1.61-1.58-2.82-2.68-3.64c-1.1-0.81-2.32-1.35-3.67-1.61c-1.35-0.25-2.69-0.38-4.02-0.38c-0.92,0-1.85,0.01-2.79,0.04
		c-0.94,0.02-1.75,0.09-2.41,0.19V117.76z M241.72,146.46c0.61,0.05,1.29,0.11,2.03,0.19c0.74,0.07,1.8,0.12,3.17,0.12
		c2.4,0,4.45-0.23,6.16-0.69c1.71-0.46,3.11-1.26,4.21-2.41c1.09-1.15,1.9-2.66,2.41-4.55c0.51-1.89,0.77-4.26,0.77-7.12
		c0-4.08-0.87-7.29-2.6-9.64c-1.73-2.35-4.31-3.52-7.73-3.52h-8.42V146.46z"/>
	<path class="st0" d="M272.86,146.46h6.73l20.66-54.79h1.84l20.81,54.79h6.81v1.07h-23.57v-1.07h8.49l-8.04-21.28h-17.75
		l-8.04,21.28h8.49v1.07h-16.45V146.46z M297.73,101.85l-8.42,22.27h16.84L297.73,101.85z"/>
	<path class="st0" d="M331.94,146.46h8.49V94.12h-8.49v-1.07h14.54c0.61,0,1.23-0.01,1.84-0.04c0.61-0.02,1.23-0.07,1.84-0.12
		c0.61,0,1.22-0.01,1.84-0.04c0.61-0.02,1.22-0.04,1.84-0.04c3.01,0,5.66,0.17,7.96,0.5c2.3,0.33,4.44,1.29,6.43,2.87
		c1.78,1.38,3.05,2.94,3.79,4.67c0.74,1.73,1.11,3.37,1.11,4.9c0,0.76-0.14,1.75-0.42,2.95c-0.28,1.2-0.89,2.42-1.84,3.67
		c-0.95,1.25-2.31,2.4-4.09,3.44c-1.79,1.05-4.16,1.75-7.12,2.11v0.15c0.82,0.1,1.93,0.29,3.33,0.57c1.4,0.28,2.83,0.75,4.29,1.41
		c1.45,0.66,2.79,1.54,4.02,2.64c1.23,1.1,2.09,2.51,2.6,4.25c0.31,1.02,0.52,2.18,0.65,3.48c0.13,1.3,0.23,2.64,0.31,4.02
		c0.08,1.38,0.15,2.71,0.23,3.98c0.08,1.28,0.22,2.35,0.42,3.21c0.31,1.33,0.79,2.52,1.45,3.6c0.66,1.07,1.73,1.61,3.21,1.61
		c0.66,0,1.35-0.12,2.07-0.38c0.71-0.26,1.35-0.66,1.91-1.23l0.69,0.84c-0.26,0.2-0.55,0.42-0.88,0.65
		c-0.33,0.23-0.75,0.45-1.26,0.65c-0.51,0.2-1.14,0.37-1.88,0.5c-0.74,0.13-1.64,0.19-2.72,0.19c-2.04,0-3.74-0.26-5.09-0.76
		c-1.35-0.51-2.44-1.26-3.25-2.26c-0.82-1-1.42-2.22-1.8-3.67c-0.38-1.45-0.65-3.15-0.8-5.09l-0.54-6.96
		c-0.2-2.55-0.72-4.54-1.53-5.97c-0.82-1.43-1.77-2.47-2.87-3.14c-1.1-0.66-2.23-1.06-3.41-1.19c-1.17-0.13-2.19-0.19-3.06-0.19
		h-7.65v27.63h8.5v1.07h-24.64V146.46z M348.08,117.76h7.04c1.43,0,2.73-0.18,3.9-0.53c1.17-0.36,2.18-0.98,3.02-1.88
		c0.84-0.89,1.49-2.1,1.95-3.64c0.46-1.53,0.69-3.47,0.69-5.81c0-2.65-0.34-4.78-1.03-6.39c-0.69-1.61-1.58-2.82-2.68-3.64
		c-1.1-0.81-2.32-1.35-3.67-1.61c-1.35-0.25-2.69-0.38-4.02-0.38c-0.92,0-1.85,0.01-2.79,0.04c-0.95,0.02-1.75,0.09-2.41,0.19
		V117.76z"/>
	<path class="st0" d="M387.19,146.46h8.49V94.12h-8.49v-1.07h13.39c0.77,0,1.54-0.01,2.33-0.04c0.79-0.02,1.59-0.07,2.41-0.12
		c0.82,0,1.61-0.01,2.37-0.04c0.76-0.02,1.5-0.04,2.22-0.04c3.72,0,6.78,0.45,9.18,1.34c2.4,0.89,4.28,1.99,5.66,3.29
		c1.38,1.3,2.32,2.71,2.83,4.21c0.51,1.5,0.77,2.87,0.77,4.09c0,1.68-0.37,3.24-1.11,4.67c-0.74,1.43-1.73,2.68-2.98,3.75
		c-1.25,1.07-2.69,1.94-4.32,2.6c-1.63,0.66-3.34,1.1-5.13,1.3v0.15c1.84,0.15,3.71,0.55,5.63,1.19c1.91,0.64,3.64,1.53,5.2,2.68
		c1.56,1.15,2.82,2.56,3.79,4.25c0.97,1.68,1.46,3.62,1.46,5.82c0,2.3-0.43,4.4-1.3,6.31c-0.87,1.91-2.17,3.56-3.9,4.94
		c-1.73,1.38-3.93,2.46-6.58,3.25c-2.65,0.79-5.74,1.19-9.26,1.19c-0.72,0-1.42-0.02-2.11-0.04c-0.69-0.02-1.42-0.07-2.18-0.11
		c-0.76-0.05-1.55-0.09-2.37-0.12c-0.82-0.03-1.69-0.04-2.6-0.04h-13.39V146.46z M403.33,117.76h7.04c1.43,0,2.73-0.18,3.9-0.53
		c1.18-0.36,2.18-0.98,3.03-1.88c0.84-0.89,1.49-2.1,1.95-3.64c0.46-1.53,0.69-3.47,0.69-5.81c0-2.65-0.35-4.78-1.03-6.39
		c-0.69-1.61-1.58-2.82-2.68-3.64c-1.1-0.81-2.32-1.35-3.67-1.61c-1.35-0.25-2.69-0.38-4.02-0.38c-0.92,0-1.85,0.01-2.79,0.04
		c-0.95,0.02-1.75,0.09-2.41,0.19V117.76z M403.33,146.46c0.61,0.05,1.29,0.11,2.03,0.19c0.74,0.07,1.8,0.12,3.18,0.12
		c2.4,0,4.45-0.23,6.16-0.69c1.71-0.46,3.11-1.26,4.21-2.41c1.1-1.15,1.9-2.66,2.41-4.55c0.51-1.89,0.76-4.26,0.76-7.12
		c0-4.08-0.87-7.29-2.6-9.64c-1.73-2.35-4.31-3.52-7.73-3.52h-8.42V146.46z"/>
	<path class="st0" d="M438.23,146.46h8.49V94.12h-8.49v-1.07H482v13.24h-0.84c-0.67-1.99-1.38-3.74-2.14-5.24
		c-0.76-1.5-1.68-2.78-2.75-3.83c-1.07-1.04-2.35-1.82-3.83-2.33c-1.48-0.51-3.26-0.77-5.36-0.77h-12.7v23.64h4.97
		c1.68,0,3.11-0.15,4.28-0.46c1.18-0.31,2.18-0.88,3.03-1.72c0.84-0.84,1.56-1.99,2.14-3.44c0.59-1.45,1.16-3.33,1.72-5.63h0.84
		v23.8h-0.84c-0.36-1.48-0.73-2.91-1.11-4.29c-0.38-1.38-0.92-2.6-1.61-3.67c-0.69-1.07-1.61-1.93-2.76-2.56
		c-1.14-0.64-2.64-0.96-4.47-0.96h-6.2v27.63h14.46c2.8,0,5.14-0.6,7-1.8c1.86-1.2,3.38-2.63,4.55-4.29
		c1.18-1.66,2.04-3.38,2.6-5.16c0.56-1.79,0.92-3.27,1.07-4.44h0.84v16.76h-46.68V146.46z"/>
	<path class="st0" d="M492.1,146.46h8.49V94.12h-8.49v-1.07h14.54c0.61,0,1.23-0.01,1.84-0.04c0.61-0.02,1.23-0.07,1.84-0.12
		c0.61,0,1.22-0.01,1.84-0.04c0.61-0.02,1.22-0.04,1.84-0.04c3.01,0,5.66,0.17,7.96,0.5c2.29,0.33,4.43,1.29,6.43,2.87
		c1.78,1.38,3.05,2.94,3.79,4.67c0.74,1.73,1.11,3.37,1.11,4.9c0,0.76-0.14,1.75-0.42,2.95c-0.28,1.2-0.9,2.42-1.84,3.67
		c-0.95,1.25-2.31,2.4-4.09,3.44c-1.79,1.05-4.16,1.75-7.12,2.11v0.15c0.81,0.1,1.93,0.29,3.33,0.57c1.4,0.28,2.83,0.75,4.28,1.41
		c1.46,0.66,2.8,1.54,4.02,2.64c1.23,1.1,2.09,2.51,2.6,4.25c0.31,1.02,0.52,2.18,0.65,3.48c0.13,1.3,0.23,2.64,0.31,4.02
		c0.07,1.38,0.15,2.71,0.23,3.98c0.07,1.28,0.22,2.35,0.42,3.21c0.31,1.33,0.79,2.52,1.46,3.6c0.66,1.07,1.73,1.61,3.21,1.61
		c0.66,0,1.35-0.12,2.07-0.38c0.71-0.26,1.35-0.66,1.91-1.23l0.69,0.84c-0.26,0.2-0.55,0.42-0.88,0.65
		c-0.33,0.23-0.75,0.45-1.26,0.65c-0.51,0.2-1.14,0.37-1.88,0.5c-0.74,0.13-1.64,0.19-2.71,0.19c-2.04,0-3.74-0.26-5.09-0.76
		c-1.35-0.51-2.43-1.26-3.25-2.26c-0.82-1-1.42-2.22-1.8-3.67c-0.38-1.45-0.65-3.15-0.8-5.09l-0.54-6.96
		c-0.2-2.55-0.71-4.54-1.53-5.97c-0.82-1.43-1.77-2.47-2.87-3.14c-1.1-0.66-2.23-1.06-3.41-1.19c-1.17-0.13-2.19-0.19-3.06-0.19
		h-7.65v27.63h8.49v1.07H492.1V146.46z M508.25,117.76h7.04c1.43,0,2.73-0.18,3.9-0.53c1.18-0.36,2.18-0.98,3.03-1.88
		c0.84-0.89,1.49-2.1,1.95-3.64c0.46-1.53,0.69-3.47,0.69-5.81c0-2.65-0.34-4.78-1.03-6.39c-0.69-1.61-1.58-2.82-2.68-3.64
		c-1.1-0.81-2.32-1.35-3.67-1.61c-1.36-0.25-2.69-0.38-4.02-0.38c-0.92,0-1.85,0.01-2.79,0.04c-0.94,0.02-1.75,0.09-2.41,0.19
		V117.76z"/>
	<path class="st0" d="M591.5,133.53c0,2.09-0.22,4.05-0.65,5.89c-0.43,1.83-1.15,3.44-2.14,4.82c-1,1.38-2.31,2.46-3.94,3.25
		c-1.63,0.79-3.62,1.19-5.97,1.19c-1.63,0-3.13-0.19-4.51-0.57c-1.38-0.38-2.58-0.94-3.6-1.68c-1.02-0.74-1.82-1.62-2.41-2.64
		c-0.59-1.02-0.88-2.17-0.88-3.44c0-1.53,0.44-2.77,1.31-3.71c0.87-0.94,2.14-1.41,3.83-1.41c0.76,0,1.4,0.13,1.91,0.38
		c0.51,0.26,0.91,0.55,1.19,0.88c0.28,0.33,0.49,0.7,0.61,1.11c0.13,0.41,0.19,0.77,0.19,1.07c0,0.56-0.08,1.05-0.23,1.45
		c-0.16,0.41-0.31,0.82-0.46,1.22c-0.15,0.41-0.31,0.84-0.46,1.3c-0.15,0.46-0.23,1.05-0.23,1.76c0,1.17,0.35,2,1.03,2.49
		c0.69,0.48,1.62,0.73,2.8,0.73c1.48,0,2.68-0.55,3.59-1.65c0.92-1.1,1.38-3.02,1.38-5.78V94.12h-8.49v-1.07h24.64v1.07h-8.49
		V133.53z"/>
	<path class="st0" d="M606.96,120.21c0-4.08,0.8-7.86,2.41-11.33c1.61-3.47,3.67-6.48,6.2-9.03c2.52-2.55,5.37-4.55,8.53-6.01
		c3.16-1.45,6.33-2.18,9.49-2.18c3.37,0,6.64,0.73,9.83,2.18s6.03,3.46,8.53,6.01c2.5,2.55,4.5,5.56,6.01,9.03
		c1.5,3.47,2.26,7.25,2.26,11.33c0,3.57-0.69,7.07-2.07,10.48c-1.38,3.42-3.26,6.46-5.66,9.11c-2.4,2.65-5.22,4.8-8.46,6.43
		c-3.24,1.63-6.72,2.45-10.44,2.45c-3.83,0-7.37-0.79-10.64-2.37c-3.27-1.58-6.08-3.68-8.46-6.31c-2.37-2.63-4.22-5.66-5.55-9.11
		C607.62,127.44,606.96,123.89,606.96,120.21z M615.76,120.21c0,4.59,0.31,8.6,0.92,12.02s1.63,6.27,3.06,8.57
		c1.43,2.3,3.26,4,5.51,5.13c2.24,1.12,5.02,1.68,8.34,1.68c3.26,0,6.03-0.56,8.3-1.68c2.27-1.12,4.12-2.83,5.55-5.13
		c1.43-2.3,2.45-5.15,3.06-8.57c0.61-3.42,0.92-7.42,0.92-12.02c0-3.52-0.23-6.93-0.69-10.21c-0.46-3.29-1.34-6.22-2.64-8.8
		c-1.3-2.58-3.11-4.63-5.44-6.16c-2.32-1.53-5.34-2.29-9.07-2.29c-3.73,0-6.75,0.76-9.07,2.29c-2.32,1.53-4.13,3.58-5.44,6.16
		c-1.3,2.58-2.18,5.51-2.64,8.8C615.99,113.29,615.76,116.69,615.76,120.21z"/>
	<path class="st0" d="M667.72,146.46h8.49V94.12h-8.49v-1.07h13.39c0.76,0,1.54-0.01,2.33-0.04c0.79-0.02,1.59-0.07,2.41-0.12
		c0.82,0,1.61-0.01,2.37-0.04c0.77-0.02,1.51-0.04,2.22-0.04c3.72,0,6.78,0.45,9.18,1.34c2.4,0.89,4.28,1.99,5.66,3.29
		c1.38,1.3,2.32,2.71,2.83,4.21c0.51,1.5,0.77,2.87,0.77,4.09c0,1.68-0.37,3.24-1.11,4.67c-0.74,1.43-1.74,2.68-2.98,3.75
		c-1.25,1.07-2.69,1.94-4.33,2.6c-1.63,0.66-3.34,1.1-5.13,1.3v0.15c1.84,0.15,3.71,0.55,5.62,1.19c1.91,0.64,3.65,1.53,5.2,2.68
		c1.56,1.15,2.82,2.56,3.79,4.25c0.97,1.68,1.46,3.62,1.46,5.82c0,2.3-0.44,4.4-1.31,6.31c-0.87,1.91-2.17,3.56-3.9,4.94
		c-1.74,1.38-3.93,2.46-6.58,3.25c-2.65,0.79-5.74,1.19-9.26,1.19c-0.71,0-1.41-0.02-2.1-0.04c-0.69-0.02-1.42-0.07-2.18-0.11
		c-0.76-0.05-1.56-0.09-2.37-0.12c-0.81-0.03-1.68-0.04-2.6-0.04h-13.39V146.46z M683.86,117.76h7.04c1.43,0,2.73-0.18,3.9-0.53
		c1.17-0.36,2.18-0.98,3.03-1.88c0.84-0.89,1.49-2.1,1.95-3.64c0.46-1.53,0.69-3.47,0.69-5.81c0-2.65-0.34-4.78-1.03-6.39
		c-0.69-1.61-1.58-2.82-2.67-3.64c-1.1-0.81-2.33-1.35-3.67-1.61c-1.36-0.25-2.69-0.38-4.02-0.38c-0.92,0-1.85,0.01-2.79,0.04
		c-0.95,0.02-1.75,0.09-2.41,0.19V117.76z M683.86,146.46c0.61,0.05,1.28,0.11,2.02,0.19c0.74,0.07,1.8,0.12,3.18,0.12
		c2.4,0,4.45-0.23,6.16-0.69c1.71-0.46,3.11-1.26,4.21-2.41c1.1-1.15,1.9-2.66,2.41-4.55c0.51-1.89,0.76-4.26,0.76-7.12
		c0-4.08-0.87-7.29-2.6-9.64c-1.74-2.35-4.32-3.52-7.73-3.52h-8.42V146.46z"/>
</g>
<rect x="5.76" y="54.52" class="st1" width="736.23" height="131.31"/>
<g>
	<path class="st0" d="M188.99,2.81c-0.12-0.15-0.34-0.23-0.67-0.23V2.15h12.18c1.13,0,2.09,0.12,2.89,0.37
		c0.79,0.25,1.43,0.59,1.93,1.03c0.5,0.44,0.86,0.94,1.08,1.52c0.22,0.58,0.34,1.21,0.34,1.89c0,0.92-0.19,1.72-0.58,2.39
		c-0.39,0.67-1.08,1.14-2.07,1.4v0.07c1.01,0.24,1.79,0.76,2.34,1.58c0.54,0.81,0.81,1.8,0.81,2.96c0,1.72-0.54,3.06-1.63,4
		c-1.09,0.94-2.87,1.42-5.35,1.42h-11.93v-0.43c0.33,0,0.55-0.08,0.67-0.23c0.12-0.15,0.18-0.36,0.18-0.62V3.43
		C189.17,3.17,189.11,2.96,188.99,2.81z M200.25,9.59c1.35,0,2.28-0.2,2.8-0.6c0.52-0.4,0.78-1.01,0.78-1.84
		c0-0.83-0.26-1.44-0.78-1.84c-0.52-0.4-1.45-0.6-2.8-0.6h-8.11v4.89H200.25z M201.03,18.23c1.13,0,1.99-0.26,2.57-0.78
		c0.58-0.52,0.87-1.28,0.87-2.27s-0.29-1.75-0.87-2.27c-0.58-0.52-1.43-0.78-2.57-0.78h-8.89v6.09H201.03z"/>
	<path class="st0" d="M214.7,2.81c-0.12-0.15-0.34-0.23-0.67-0.23V2.15h14.84c0.61,0,1-0.05,1.17-0.16
		c0.17-0.11,0.25-0.29,0.25-0.55h0.43v4.04h-0.43c0-0.31-0.09-0.55-0.28-0.73c-0.19-0.18-0.56-0.27-1.1-0.27h-11.05v5.59h7.19
		c0.42,0,0.77-0.07,1.04-0.21c0.27-0.14,0.41-0.4,0.41-0.78h0.42v4.28h-0.42c0-0.35-0.11-0.6-0.32-0.74
		c-0.21-0.14-0.57-0.21-1.06-0.21h-7.26v6.02h11.83c0.5,0,0.86-0.09,1.1-0.27c0.24-0.18,0.35-0.49,0.35-0.94h0.43v4.21h-0.43
		c0-0.45-0.41-0.67-1.24-0.67h-15.86v-0.43c0.33,0,0.55-0.08,0.67-0.23c0.12-0.15,0.18-0.36,0.18-0.62V3.43
		C214.88,3.17,214.82,2.96,214.7,2.81z"/>
	<path class="st0" d="M239.49,18.66c-0.09,0.21-0.2,0.45-0.32,0.71c-0.12,0.26-0.18,0.46-0.18,0.6c0,0.26,0.2,0.39,0.6,0.39v0.43
		h-4.36v-0.43c0.14,0,0.27-0.01,0.37-0.04c0.11-0.02,0.21-0.09,0.3-0.21c0.09-0.12,0.2-0.29,0.32-0.51c0.12-0.22,0.27-0.52,0.46-0.9
		l6.41-14.31c0.19-0.4,0.33-0.7,0.43-0.9c0.09-0.2,0.14-0.36,0.14-0.48c0-0.28-0.21-0.43-0.64-0.43V2.15h5.17v0.43
		c-0.38,0-0.57,0.14-0.57,0.43c0,0.14,0.06,0.32,0.18,0.55c0.12,0.22,0.27,0.54,0.46,0.94l6.8,14.09c0.21,0.43,0.38,0.76,0.5,0.99
		c0.12,0.24,0.23,0.41,0.34,0.53c0.11,0.12,0.22,0.19,0.34,0.21c0.12,0.02,0.28,0.04,0.5,0.04v0.43h-4.92v-0.43
		c0.28,0,0.47-0.04,0.57-0.12c0.09-0.08,0.14-0.21,0.14-0.37c0-0.12-0.03-0.24-0.09-0.37c-0.06-0.13-0.18-0.41-0.37-0.83l-1.35-2.83
		h-10.02L239.49,18.66z M249.51,13.49l-4-8.36l-3.68,8.36H249.51z"/>
	<path class="st0" d="M265.48,20.13c0.12,0.15,0.34,0.23,0.67,0.23v0.43h-4.67v-0.43c0.33,0,0.55-0.08,0.67-0.23
		c0.12-0.15,0.18-0.36,0.18-0.62V3.43c0-0.26-0.06-0.47-0.18-0.62c-0.12-0.15-0.34-0.23-0.67-0.23V2.15h11.86
		c2.34,0,4.01,0.44,5.03,1.33c1.01,0.89,1.52,2.17,1.52,3.84c0,1.49-0.39,2.67-1.17,3.54c-0.78,0.87-2.05,1.43-3.82,1.66l4.46,6.91
		c0.26,0.38,0.47,0.63,0.62,0.74c0.15,0.12,0.41,0.18,0.76,0.18v0.43h-5.1v-0.43c0.31,0,0.5-0.02,0.58-0.07
		c0.08-0.05,0.12-0.13,0.12-0.25c0-0.14-0.06-0.27-0.18-0.39l-4.36-6.94h-6.52v6.8C265.3,19.77,265.36,19.97,265.48,20.13z
		 M273.06,10.3c1.44,0,2.45-0.27,3.05-0.81c0.59-0.54,0.89-1.29,0.89-2.23c0-0.47-0.06-0.87-0.18-1.2
		c-0.12-0.33-0.33-0.61-0.64-0.83c-0.31-0.22-0.73-0.39-1.26-0.5c-0.53-0.11-1.21-0.16-2.04-0.16h-7.58v5.74H273.06z"/>
	<path class="st0" d="M287.01,2.81c-0.12-0.15-0.34-0.23-0.67-0.23V2.15h10.98c1.46,0,2.78,0.23,3.95,0.69
		c1.17,0.46,2.16,1.1,2.97,1.93c0.81,0.83,1.45,1.81,1.9,2.96c0.45,1.15,0.67,2.39,0.67,3.74c0,1.35-0.19,2.59-0.57,3.74
		c-0.38,1.15-0.94,2.13-1.68,2.96c-0.74,0.83-1.66,1.47-2.76,1.93c-1.1,0.46-2.37,0.69-3.81,0.69h-11.65v-0.43
		c0.33,0,0.55-0.08,0.67-0.23c0.12-0.15,0.18-0.36,0.18-0.62V3.43C287.19,3.17,287.13,2.96,287.01,2.81z M297.67,18.44
		c2.08,0,3.63-0.59,4.67-1.77c1.04-1.18,1.56-2.92,1.56-5.21c0-2.29-0.6-4.02-1.79-5.21c-1.19-1.18-2.89-1.77-5.08-1.77h-6.87v13.95
		H297.67z"/>
	<path class="st0" d="M313.78,15.19c-0.07,0.17-0.11,0.32-0.11,0.46c0,0.33,0.21,0.67,0.62,1.03c0.41,0.35,0.96,0.68,1.63,0.97
		c0.67,0.3,1.43,0.54,2.28,0.73c0.85,0.19,1.71,0.28,2.58,0.28c2.24,0,3.87-0.33,4.87-0.99c1-0.66,1.51-1.51,1.51-2.55
		c0-0.5-0.12-0.91-0.37-1.24c-0.25-0.33-0.59-0.58-1.03-0.76c-0.44-0.18-0.94-0.3-1.52-0.37c-0.58-0.07-1.2-0.11-1.86-0.11
		c-1.09,0-2.24-0.01-3.45-0.02c-1.22-0.01-2.33-0.17-3.35-0.46c-1.02-0.29-1.85-0.78-2.51-1.47c-0.66-0.68-0.99-1.7-0.99-3.05
		c0-0.85,0.24-1.62,0.71-2.32c0.47-0.7,1.12-1.29,1.93-1.79c0.81-0.5,1.78-0.89,2.89-1.17c1.11-0.28,2.31-0.42,3.61-0.42
		c1.01,0,1.89,0.07,2.64,0.21c0.74,0.14,1.39,0.3,1.93,0.46c0.54,0.17,0.99,0.32,1.35,0.46c0.35,0.14,0.65,0.21,0.89,0.21
		c0.26,0,0.45-0.05,0.57-0.14c0.12-0.09,0.24-0.2,0.35-0.32L329.36,3l-1.95,4.07l-0.39-0.25c0.02-0.07,0.03-0.22,0.03-0.46
		c0-0.17-0.14-0.37-0.42-0.6c-0.28-0.24-0.68-0.47-1.2-0.69c-0.52-0.22-1.14-0.41-1.86-0.57c-0.72-0.15-1.5-0.23-2.35-0.23
		c-1.91,0-3.43,0.31-4.55,0.92c-1.12,0.61-1.68,1.42-1.68,2.41c0,0.45,0.12,0.81,0.37,1.08c0.25,0.27,0.59,0.48,1.03,0.64
		c0.44,0.15,0.94,0.25,1.52,0.3c0.58,0.05,1.2,0.07,1.86,0.07c1.11,0,2.27,0.02,3.47,0.05c1.2,0.04,2.31,0.22,3.33,0.55
		c1.02,0.33,1.85,0.86,2.51,1.59c0.66,0.73,0.99,1.81,0.99,3.22c0,0.76-0.2,1.48-0.58,2.18c-0.39,0.7-0.97,1.32-1.75,1.86
		c-0.78,0.54-1.74,0.97-2.89,1.27c-1.15,0.31-2.47,0.46-3.98,0.46c-1.27,0-2.38-0.1-3.31-0.3c-0.93-0.2-1.73-0.44-2.39-0.71
		c-0.66-0.27-1.2-0.52-1.63-0.74c-0.42-0.22-0.77-0.34-1.03-0.34c-0.24,0-0.48,0.14-0.74,0.43l-0.35-0.21l1.91-4.07L313.78,15.19z"
		/>
	<path class="st0" d="M364.14,12.03c0-0.31-0.04-0.52-0.12-0.64c-0.08-0.12-0.17-0.18-0.27-0.18c-0.21,0-0.48,0.14-0.8,0.43
		c-0.32,0.28-0.65,0.65-0.99,1.1c-0.34,0.45-0.67,0.94-0.97,1.49c-0.31,0.54-0.55,1.07-0.74,1.59c0.21,0.43,0.48,0.8,0.8,1.13
		c0.32,0.33,0.65,0.61,0.99,0.85c0.34,0.24,0.66,0.41,0.94,0.53c0.28,0.12,0.5,0.18,0.64,0.18c0.21,0,0.36-0.09,0.44-0.27
		c0.08-0.18,0.11-0.35,0.09-0.51h0.43v3.05h-0.53c-0.54,0-1.03-0.01-1.45-0.04c-0.42-0.02-0.83-0.12-1.22-0.3
		c-0.39-0.18-0.78-0.44-1.17-0.8c-0.39-0.35-0.8-0.85-1.22-1.49c-0.73,1.04-1.71,1.75-2.94,2.14c-1.23,0.39-2.46,0.58-3.68,0.58
		c-0.99,0-1.92-0.08-2.8-0.23c-0.87-0.15-1.63-0.45-2.27-0.89c-0.64-0.44-1.14-1.01-1.51-1.74c-0.37-0.72-0.55-1.62-0.55-2.71
		c0-0.64,0.11-1.23,0.34-1.79c0.22-0.55,0.53-1.06,0.92-1.52c0.39-0.46,0.84-0.87,1.34-1.24c0.51-0.37,1.03-0.67,1.58-0.9
		c-0.54-0.33-0.97-0.79-1.27-1.38c-0.31-0.59-0.46-1.2-0.46-1.84c0-0.85,0.16-1.57,0.5-2.16c0.33-0.59,0.77-1.07,1.31-1.45
		c0.54-0.38,1.17-0.66,1.88-0.83c0.71-0.18,1.43-0.27,2.16-0.27c0.9,0,1.7,0.12,2.41,0.35c0.71,0.24,1.32,0.55,1.82,0.96
		c0.51,0.4,0.9,0.87,1.17,1.42c0.27,0.54,0.41,1.12,0.41,1.73c0,1.06-0.24,1.89-0.73,2.48c-0.48,0.59-1.19,1.06-2.11,1.42
		c0.61,0.24,1.13,0.59,1.54,1.06c0.41,0.47,0.74,1,0.97,1.59c0.54-1.16,1.29-2.2,2.23-3.13c0.94-0.93,2.05-1.61,3.33-2.04v4.25
		H364.14z M349.3,17.91c0.78,0.66,1.84,1,3.19,1c0.83,0,1.54-0.12,2.14-0.36c0.6-0.24,1.1-0.53,1.51-0.89
		c0.4-0.36,0.7-0.74,0.9-1.14c0.2-0.4,0.3-0.78,0.3-1.14c0-0.43-0.14-0.87-0.41-1.33c-0.27-0.46-0.63-0.89-1.06-1.28
		c-0.44-0.39-0.95-0.71-1.52-0.96c-0.58-0.25-1.17-0.37-1.79-0.37c-0.57,0-1.12,0.08-1.66,0.25c-0.54,0.17-1.02,0.41-1.42,0.73
		c-0.4,0.32-0.73,0.71-0.97,1.16c-0.25,0.45-0.37,0.96-0.37,1.53C348.13,16.31,348.52,17.24,349.3,17.91z M355.67,4.76
		c-0.5-0.55-1.3-0.83-2.41-0.83c-1.11,0-1.89,0.28-2.35,0.85c-0.46,0.57-0.69,1.18-0.69,1.84c0,0.64,0.25,1.21,0.74,1.72
		c0.5,0.51,1.27,0.76,2.34,0.76c0.99,0,1.76-0.22,2.3-0.67c0.54-0.45,0.81-1.07,0.81-1.88C356.42,5.91,356.17,5.31,355.67,4.76z"/>
	<path class="st0" d="M401.04,20.13c0.12,0.15,0.34,0.23,0.67,0.23v0.43h-4.67v-0.43c0.33,0,0.55-0.08,0.67-0.23
		c0.12-0.15,0.18-0.36,0.18-0.62v-7.08h-12.54v7.08c0,0.26,0.06,0.47,0.18,0.62c0.12,0.15,0.34,0.23,0.67,0.23v0.43h-4.67v-0.43
		c0.33,0,0.55-0.08,0.67-0.23c0.12-0.15,0.18-0.36,0.18-0.62V3.43c0-0.26-0.06-0.47-0.18-0.62c-0.12-0.15-0.34-0.23-0.67-0.23V2.15
		h4.67v0.43c-0.33,0-0.56,0.08-0.67,0.23c-0.12,0.15-0.18,0.36-0.18,0.62v6.66h12.54V3.43c0-0.26-0.06-0.47-0.18-0.62
		c-0.12-0.15-0.34-0.23-0.67-0.23V2.15h4.67v0.43c-0.33,0-0.56,0.08-0.67,0.23c-0.12,0.15-0.18,0.36-0.18,0.62v16.08
		C400.86,19.77,400.92,19.97,401.04,20.13z"/>
	<path class="st0" d="M410.7,18.66c-0.1,0.21-0.2,0.45-0.32,0.71c-0.12,0.26-0.18,0.46-0.18,0.6c0,0.26,0.2,0.39,0.6,0.39v0.43
		h-4.36v-0.43c0.14,0,0.27-0.01,0.37-0.04c0.11-0.02,0.21-0.09,0.3-0.21c0.09-0.12,0.2-0.29,0.32-0.51c0.12-0.22,0.27-0.52,0.46-0.9
		l6.41-14.31c0.19-0.4,0.33-0.7,0.42-0.9c0.09-0.2,0.14-0.36,0.14-0.48c0-0.28-0.21-0.43-0.64-0.43V2.15h5.17v0.43
		c-0.38,0-0.57,0.14-0.57,0.43c0,0.14,0.06,0.32,0.18,0.55c0.12,0.22,0.27,0.54,0.46,0.94l6.8,14.09c0.21,0.43,0.38,0.76,0.5,0.99
		c0.12,0.24,0.23,0.41,0.34,0.53c0.11,0.12,0.22,0.19,0.34,0.21c0.12,0.02,0.28,0.04,0.5,0.04v0.43h-4.92v-0.43
		c0.28,0,0.47-0.04,0.57-0.12c0.09-0.08,0.14-0.21,0.14-0.37c0-0.12-0.03-0.24-0.09-0.37c-0.06-0.13-0.18-0.41-0.37-0.83l-1.35-2.83
		h-10.02L410.7,18.66z M420.72,13.49l-4-8.36l-3.68,8.36H420.72z"/>
	<path class="st0" d="M432.55,20.36c0.33,0,0.56-0.08,0.67-0.23c0.12-0.15,0.18-0.36,0.18-0.62V3.43c0-0.26-0.06-0.47-0.18-0.62
		c-0.12-0.15-0.34-0.23-0.67-0.23V2.15h4.67v0.43c-0.33,0-0.56,0.08-0.67,0.23c-0.12,0.15-0.18,0.36-0.18,0.62v16.08
		c0,0.26,0.06,0.47,0.18,0.62c0.12,0.15,0.34,0.23,0.67,0.23v0.43h-4.67V20.36z"/>
	<path class="st0" d="M448.49,20.13c0.12,0.15,0.34,0.23,0.67,0.23v0.43h-4.67v-0.43c0.33,0,0.56-0.08,0.67-0.23
		c0.12-0.15,0.18-0.36,0.18-0.62V3.43c0-0.26-0.06-0.47-0.18-0.62c-0.12-0.15-0.34-0.23-0.67-0.23V2.15h11.86
		c2.34,0,4.01,0.44,5.03,1.33c1.01,0.89,1.52,2.17,1.52,3.84c0,1.49-0.39,2.67-1.17,3.54c-0.78,0.87-2.05,1.43-3.83,1.66l4.46,6.91
		c0.26,0.38,0.47,0.63,0.62,0.74c0.15,0.12,0.41,0.18,0.76,0.18v0.43h-5.1v-0.43c0.31,0,0.5-0.02,0.58-0.07
		c0.08-0.05,0.12-0.13,0.12-0.25c0-0.14-0.06-0.27-0.18-0.39l-4.36-6.94h-6.51v6.8C448.31,19.77,448.37,19.97,448.49,20.13z
		 M456.06,10.3c1.44,0,2.46-0.27,3.05-0.81c0.59-0.54,0.88-1.29,0.88-2.23c0-0.47-0.06-0.87-0.18-1.2
		c-0.12-0.33-0.33-0.61-0.64-0.83c-0.31-0.22-0.72-0.39-1.26-0.5c-0.53-0.11-1.21-0.16-2.04-0.16h-7.58v5.74H456.06z"/>
	<path class="st0" d="M488.82,18.23c-0.14-0.17-0.32-0.25-0.53-0.25c-0.12,0-0.36,0.15-0.73,0.46c-0.37,0.31-0.88,0.65-1.56,1.02
		c-0.67,0.37-1.53,0.7-2.57,0.99c-1.04,0.29-2.3,0.43-3.79,0.43c-1.65,0-3.16-0.24-4.53-0.71c-1.37-0.47-2.54-1.15-3.52-2.04
		s-1.74-1.94-2.28-3.15c-0.54-1.22-0.81-2.54-0.81-3.98c0-1.2,0.25-2.35,0.76-3.44c0.51-1.09,1.24-2.05,2.2-2.89
		c0.95-0.84,2.11-1.51,3.47-2c1.36-0.5,2.89-0.74,4.59-0.74c1.18,0,2.23,0.1,3.15,0.3c0.92,0.2,1.72,0.42,2.41,0.66
		c0.68,0.24,1.24,0.45,1.68,0.66c0.44,0.2,0.74,0.3,0.9,0.3c0.19,0,0.31-0.03,0.36-0.09c0.05-0.06,0.11-0.14,0.18-0.23l0.42,0.28
		l-2.2,3.79l-0.46-0.21c0.12-0.12,0.18-0.27,0.18-0.46c0-0.19-0.18-0.43-0.53-0.73c-0.35-0.29-0.84-0.58-1.45-0.85
		c-0.61-0.27-1.34-0.51-2.16-0.71c-0.83-0.2-1.71-0.3-2.66-0.3c-0.95,0-1.89,0.14-2.85,0.41c-0.96,0.27-1.81,0.69-2.55,1.25
		c-0.74,0.57-1.35,1.29-1.82,2.17c-0.47,0.88-0.71,1.94-0.71,3.16c0,1.06,0.24,2.03,0.73,2.91c0.48,0.88,1.13,1.64,1.93,2.28
		c0.8,0.64,1.72,1.13,2.75,1.48c1.03,0.35,2.08,0.53,3.17,0.53c0.85,0,1.66-0.12,2.42-0.37c0.77-0.25,1.45-0.55,2.04-0.9
		c0.59-0.35,1.06-0.71,1.42-1.08c0.36-0.37,0.53-0.67,0.53-0.9c0-0.21-0.06-0.38-0.18-0.5l0.46-0.28l2.62,3.4L488.82,18.23z"/>
	<path class="st0" d="M495.58,2.81c-0.12-0.15-0.34-0.23-0.67-0.23V2.15h4.67v0.43c-0.33,0-0.56,0.08-0.67,0.23
		c-0.12,0.15-0.18,0.36-0.18,0.62v11.33c0,1.35,0.5,2.3,1.5,2.85c1,0.56,2.5,0.83,4.48,0.83c1.98,0,3.48-0.28,4.48-0.83
		c1-0.55,1.51-1.5,1.51-2.85V3.43c0-0.26-0.06-0.47-0.18-0.62c-0.12-0.15-0.34-0.23-0.67-0.23V2.15h4.67v0.43
		c-0.33,0-0.55,0.08-0.67,0.23c-0.12,0.15-0.18,0.36-0.18,0.62v10.55c0,1.42-0.21,2.57-0.62,3.47c-0.41,0.9-1,1.61-1.77,2.12
		c-0.77,0.52-1.71,0.87-2.82,1.04c-1.11,0.18-2.36,0.27-3.75,0.27c-1.39,0-2.65-0.09-3.75-0.27c-1.11-0.18-2.05-0.52-2.81-1.04
		c-0.77-0.52-1.36-1.23-1.77-2.12c-0.41-0.9-0.62-2.05-0.62-3.47V3.43C495.76,3.17,495.7,2.96,495.58,2.81z"/>
	<path class="st0" d="M525.96,20.36c0.33,0,0.56-0.08,0.67-0.23c0.12-0.15,0.18-0.36,0.18-0.62V4.49h-5.95
		c-0.45,0-0.77,0.07-0.95,0.19c-0.19,0.13-0.28,0.37-0.28,0.73h-0.42V1.23h0.42c0,0.61,0.41,0.92,1.24,0.92h14.87
		c0.83,0,1.24-0.31,1.24-0.92h0.42v4.18h-0.42c0-0.35-0.09-0.6-0.28-0.73c-0.19-0.13-0.51-0.19-0.95-0.19h-5.95v15.01
		c0,0.26,0.06,0.47,0.18,0.62c0.12,0.15,0.34,0.23,0.67,0.23v0.43h-4.68V20.36z"/>
	<path class="st0" d="M543.99,15.19c-0.07,0.17-0.11,0.32-0.11,0.46c0,0.33,0.21,0.67,0.62,1.03c0.41,0.35,0.96,0.68,1.63,0.97
		c0.67,0.3,1.44,0.54,2.28,0.73c0.85,0.19,1.71,0.28,2.58,0.28c2.24,0,3.87-0.33,4.87-0.99c1-0.66,1.5-1.51,1.5-2.55
		c0-0.5-0.12-0.91-0.37-1.24c-0.25-0.33-0.59-0.58-1.03-0.76c-0.44-0.18-0.94-0.3-1.52-0.37c-0.58-0.07-1.2-0.11-1.86-0.11
		c-1.09,0-2.24-0.01-3.45-0.02c-1.22-0.01-2.33-0.17-3.35-0.46c-1.02-0.29-1.85-0.78-2.51-1.47c-0.66-0.68-0.99-1.7-0.99-3.05
		c0-0.85,0.24-1.62,0.71-2.32c0.47-0.7,1.11-1.29,1.93-1.79c0.81-0.5,1.78-0.89,2.89-1.17c1.11-0.28,2.31-0.42,3.61-0.42
		c1.01,0,1.89,0.07,2.64,0.21c0.74,0.14,1.39,0.3,1.93,0.46c0.54,0.17,0.99,0.32,1.35,0.46c0.35,0.14,0.65,0.21,0.89,0.21
		c0.26,0,0.45-0.05,0.57-0.14c0.12-0.09,0.23-0.2,0.35-0.32L559.57,3l-1.95,4.07l-0.39-0.25c0.02-0.07,0.03-0.22,0.03-0.46
		c0-0.17-0.14-0.37-0.42-0.6c-0.28-0.24-0.69-0.47-1.2-0.69c-0.52-0.22-1.14-0.41-1.86-0.57c-0.72-0.15-1.5-0.23-2.35-0.23
		c-1.91,0-3.43,0.31-4.55,0.92c-1.12,0.61-1.68,1.42-1.68,2.41c0,0.45,0.12,0.81,0.37,1.08c0.25,0.27,0.59,0.48,1.03,0.64
		c0.44,0.15,0.94,0.25,1.52,0.3c0.58,0.05,1.2,0.07,1.86,0.07c1.11,0,2.27,0.02,3.47,0.05c1.2,0.04,2.31,0.22,3.33,0.55
		c1.01,0.33,1.85,0.86,2.51,1.59c0.66,0.73,0.99,1.81,0.99,3.22c0,0.76-0.2,1.48-0.58,2.18c-0.39,0.7-0.97,1.32-1.75,1.86
		c-0.78,0.54-1.74,0.97-2.89,1.27c-1.14,0.31-2.47,0.46-3.98,0.46c-1.27,0-2.38-0.1-3.31-0.3c-0.93-0.2-1.73-0.44-2.39-0.71
		c-0.66-0.27-1.2-0.52-1.63-0.74c-0.42-0.22-0.77-0.34-1.03-0.34c-0.24,0-0.48,0.14-0.74,0.43l-0.35-0.21l1.91-4.07L543.99,15.19z"
		/>
</g>
<circle class="st0" cx="157.31" cy="13.4" r="3.93"/>
<circle class="st0" cx="587.63" cy="13.4" r="3.93"/>
</svg>
