<svg xmlns="http://www.w3.org/2000/svg" viewBox="0 0 240.94 155.91"><defs><style>.cls-1{fill:none;}.cls-2{fill:#e1e1e1;}.cls-3{fill:#fff;}</style></defs><title>Mesa de trabajo 1</title><g id="Capa_3" data-name="Capa 3"><path class="cls-1" d="M123.82,113.37l-1.14.21c-.44.1-.93.21-1.47.35s-1.11.3-1.71.5l-.93.31-.38.14.93-.36c.77-.3,1.43-.54,1.89-.7l.72-.25s-.28,0-.76.09l-.88.14-1.12.25c-.41.1-.85.22-1.31.36l-.71.24-.73.26-.75.31-.38.16-.37.18-.39.18-.36.2-.38.2-.37.21-.36.21-.36.23c-.24.14-.47.3-.7.45l-.68.47-.65.47c-.42.31-.82.63-1.19.94s-.71.6-1,.89-.59.54-.83.78-.45.45-.62.63c-.34.35-.52.57-.52.57l2.28-1.61c.68-.47,1.48-1,2.34-1.59l.12-.08-.08.06c-.29.2-.58.4-.86.61-.56.41-1.08.83-1.57,1.22s-1,.79-1.37,1.15-.79.7-1.11,1l-.84.81c-.45.45-.7.73-.7.73l.81-.61.93-.68,1.21-.88,1.44-1,1.63-1.11c.57-.38,1.16-.77,1.76-1.15l.46-.28.46-.28.46-.29.47-.27.47-.27.48-.26.48-.26.47-.24.47-.24.48-.23.47-.22.47-.21.92-.4.88-.36c.29-.13.58-.23.85-.34l.8-.3,1.41-.5,1.09-.36.71-.22.26-.08-.27,0C124.39,113.28,124.14,113.31,123.82,113.37Z"/><circle class="cls-1" cx="134.89" cy="107.82" r="0.84"/><path class="cls-1" d="M95.11,128a1.34,1.34,0,1,0,1.34,1.34A1.34,1.34,0,0,0,95.11,128Z"/><path class="cls-1" d="M168.39,75.58l-2.55-26.33L163,76.8a10.29,10.29,0,0,1,2,.94A11.74,11.74,0,0,1,168.39,75.58Z"/><path class="cls-1" d="M92.66,106h0A2.3,2.3,0,0,1,92,107.5l-.82,1s-2.41.28-14.68-1.12-14.52-2-14.52-2-.32-.05-.52-1.12a4,4,0,0,1,0-1.46h-.08a4.45,4.45,0,0,0,.13,4.12c1.11,1.59,1.78,1.63,1.86,1.63h0l.09,0h.14L87,110.9h0a22.45,22.45,0,0,0,2.71.2c1.68,0,1.94-.31,2-.31a14.92,14.92,0,0,0,1-4.52Z"/><circle class="cls-1" cx="105.83" cy="108.46" r="0.84"/><path class="cls-1" d="M104.21,75.58l-2.55-26.33L98.85,76.8a10.29,10.29,0,0,1,2,.94A11.88,11.88,0,0,1,104.21,75.58Z"/><path class="cls-1" d="M144.28,130a1.34,1.34,0,1,0,1.34-1.33A1.34,1.34,0,0,0,144.28,130Z"/><path class="cls-1" d="M179.29,102.18a4.12,4.12,0,0,1,0,1.46c-.2,1.06-.52,1.12-.52,1.12s-2.24.6-14.52,2-14.67,1.13-14.67,1.13l-.83-1a2.32,2.32,0,0,1-.61-1.45h0l0,.22c.13,1.41.51,3.89,1,4.52,0,0,.27.32,1.94.32a22.73,22.73,0,0,0,2.72-.2h0l23.4-2.35h.15l.09,0h0c.07,0,.75-.05,1.86-1.63a4.46,4.46,0,0,0,.12-4.13Z"/><path class="cls-2" d="M64,46.81V68.18c-.21.16-1.91,1.46-2.79,2.15A4.5,4.5,0,0,1,64,72.45V94H61.9v1.35h6.16V94H66V58.37l5.42,37h5.28l4.62-37v32.2A5.71,5.71,0,0,1,77.09,94a7,7,0,0,0,7.56.51,7,7,0,0,0,3.38.87A7.08,7.08,0,0,0,92.21,94a5.72,5.72,0,0,1-4.28-3.48v-18a4.53,4.53,0,0,1,2.83-2.16l-2.83-2.16V47a5.59,5.59,0,0,1,3.74-2.56,6.83,6.83,0,0,0-7.41-.5,6.87,6.87,0,0,0-7.43.5,5.53,5.53,0,0,1,3.91,2.82L76.3,83.81,71.22,47.26a5.6,5.6,0,0,1,3.93-2.86,6.92,6.92,0,0,0-7.43-.5,6.9,6.9,0,0,0-7.42.5A5.61,5.61,0,0,1,64,46.81ZM84.61,71.22c0-1.91,0-3.79,0-5.58,0-2.19.09-4.24.12-6s.09-3.22.12-4.24S85,53.8,85,53.8s0,.59.05,1.61.08,2.48.1,4.24.06,3.8.06,6c0,1.77,0,3.65,0,5.54a1.85,1.85,0,0,1,.45,1.31,1.71,1.71,0,0,1-.46,1.38c0,1.88,0,3.74,0,5.5,0,2.19-.08,4.24-.11,6,0,.88-.05,1.68-.07,2.4s0,1.33,0,1.84l0,1.61s0-.58-.1-1.61c0-.51,0-1.13-.09-1.84s0-1.52,0-2.39c0-1.76-.07-3.8-.07-6,0-1.81,0-3.72,0-5.64a2.1,2.1,0,0,1-.36-1.22A1.9,1.9,0,0,1,84.61,71.22Z"/><path class="cls-2" d="M89.59,78.43a9.76,9.76,0,0,1,3.58-.68,10.05,10.05,0,0,1,3.44.61L94.82,94h-2v1.35H99V94h-2l1.6-14.72c.23.15.44.3.66.46a9.59,9.59,0,0,1,2.39,2.63l.14-.28a11.25,11.25,0,0,1,1.65-2.18,12.32,12.32,0,0,1,1.13-1l1.13,11.63A5.73,5.73,0,0,1,101.35,94a7,7,0,0,0,7.55.51,7,7,0,0,0,3.38.87,7,7,0,0,0,3.65-1.05c-.18-.11-.36-.21-.53-.33a5.11,5.11,0,0,0,.53-.13,5.8,5.8,0,0,1-3.75-3.35L110.71,76.4c.34,0,.68-.05,1-.05a11.57,11.57,0,0,1,4.22.8,11.09,11.09,0,0,0-1.42-1,11.45,11.45,0,0,0-4-1.39l-3-28.17a5.6,5.6,0,0,1,3.52-2.21,6.85,6.85,0,0,0-7.42-.5,6.78,6.78,0,0,0-3.32-.86,6.86,6.86,0,0,0-4.1,1.36,5.64,5.64,0,0,1,3.88,2.75l-3.32,29.2a10.93,10.93,0,0,0-1.15-.06,9.71,9.71,0,0,0-4.88,1.3A9.24,9.24,0,0,0,89.59,78.43Zm16.11-23c.12,1,.31,2.47.5,4.21s.43,3.77.64,6c.17,1.76.36,3.63.54,5.51a1.89,1.89,0,0,1,.58,1.26,1.73,1.73,0,0,1-.33,1.42c.16,1.87.32,3.72.48,5.48.19,2.19.32,4.23.46,6,.06.87.12,1.67.17,2.39s.12,1.32.16,1.83l.13,1.61s-.09-.58-.24-1.59c-.08-.51-.17-1.13-.27-1.83s-.17-1.51-.28-2.38c-.18-1.74-.43-3.77-.64-6-.17-1.8-.36-3.7-.55-5.62a2,2,0,0,1-.48-1.17,2,2,0,0,1,.25-1.34c-.17-1.89-.33-3.77-.49-5.55-.19-2.19-.32-4.23-.46-6s-.21-3.21-.28-4.23-.1-1.6-.1-1.6S105.57,54.47,105.7,55.48Zm-4-6.23,2.55,26.33a11.88,11.88,0,0,0-3.34,2.16,10.29,10.29,0,0,0-2-.94Z"/><path class="cls-2" d="M153.77,78.43a9.76,9.76,0,0,1,3.58-.68,10,10,0,0,1,3.43.61L159,94H157v1.35h6.2V94H161.1l1.59-14.72c.23.15.45.3.66.46a9.26,9.26,0,0,1,2.38,2.63c.06-.1.1-.19.16-.28a11.21,11.21,0,0,1,1.64-2.18,12.32,12.32,0,0,1,1.13-1l1.13,11.63A5.73,5.73,0,0,1,165.53,94a7,7,0,0,0,7.55.51,7,7,0,0,0,7.56-.51,5.75,5.75,0,0,1-4.28-3.48L174.89,76.4c.34,0,.68-.05,1-.05a11.53,11.53,0,0,1,4.22.8,11.84,11.84,0,0,0-1.42-1,11.52,11.52,0,0,0-4-1.39l-3-28.17a5.67,5.67,0,0,1,3.53-2.21,6.83,6.83,0,0,0-7.41-.5,6.87,6.87,0,0,0-7.43.5,5.64,5.64,0,0,1,3.88,2.75L161,76.36a10.93,10.93,0,0,0-1.15-.06A9.71,9.71,0,0,0,155,77.6,9.24,9.24,0,0,0,153.77,78.43Zm16-23c.12,1,.31,2.47.5,4.21s.43,3.77.64,6c.18,1.76.36,3.63.55,5.51a1.89,1.89,0,0,1,.57,1.26,1.74,1.74,0,0,1-.32,1.42c.16,1.87.32,3.72.47,5.48.2,2.19.33,4.23.47,6,.06.87.11,1.67.16,2.39S173,89,173,89.52l.13,1.61-.25-1.59c-.07-.51-.16-1.13-.26-1.83s-.18-1.51-.28-2.38c-.19-1.74-.43-3.77-.64-6-.18-1.8-.37-3.7-.55-5.62a2,2,0,0,1-.48-1.17,2,2,0,0,1,.24-1.34c-.16-1.89-.32-3.77-.48-5.55-.19-2.19-.33-4.23-.46-6s-.22-3.21-.29-4.23-.09-1.6-.09-1.6Zm-4-6.23,2.55,26.33a11.74,11.74,0,0,0-3.34,2.16,10.29,10.29,0,0,0-2-.94Z"/><path class="cls-2" d="M147.64,94.5A7,7,0,0,0,155.2,94,5.7,5.7,0,0,1,151,90.56V72.48a4.53,4.53,0,0,1,2.82-2.16L151,68.16V47.82a5.68,5.68,0,0,1,4.25-3.43,7,7,0,0,0-7.56-.52,7,7,0,0,0-3.39-.87,6.91,6.91,0,0,0-4.16,1.39,5.72,5.72,0,0,1,4.26,3.45V68.16c-.09.07-1.88,1.43-2.82,2.17a4.49,4.49,0,0,1,2.82,2.16v18A5.75,5.75,0,0,1,140.09,94a7,7,0,0,0,7.55.51Zm-.32-23.28c0-1.91,0-3.79.05-5.58,0-2.19.08-4.24.11-6s.1-3.22.13-4.24.06-1.61.06-1.61,0,.59.05,1.61.07,2.48.09,4.24.06,3.8.07,6c0,1.77,0,3.65,0,5.54a1.9,1.9,0,0,1,.45,1.31,1.74,1.74,0,0,1-.46,1.38c0,1.88,0,3.74-.06,5.5,0,2.19-.08,4.24-.11,6,0,.88-.05,1.68-.06,2.4s0,1.33,0,1.84c0,1,0,1.61,0,1.61s0-.58-.09-1.61c0-.51-.06-1.13-.09-1.84s0-1.52-.05-2.39c0-1.76-.06-3.8-.06-6,0-1.81,0-3.72,0-5.64a2,2,0,0,1-.37-1.22A1.85,1.85,0,0,1,147.32,71.22Z"/><path class="cls-2" d="M115.93,94.32a6.94,6.94,0,0,0,3.64,1.05A7.06,7.06,0,0,0,123,94.5a7,7,0,0,0,7.56-.51,5.72,5.72,0,0,1-4.26-3.43V71l4.33.07A6.3,6.3,0,0,1,132.1,73h1.71V62.6h-1v2.26a6.25,6.25,0,0,1-2.3,4.81h-4.23v-22a5.34,5.34,0,0,1,4.81-3.29l.14.1a12.58,12.58,0,0,1,4.47,9.64v4.58h2.08V54.16a12.54,12.54,0,0,1,1.29-5.54V43.05H126.17a6.81,6.81,0,0,0-3.19.85,6.75,6.75,0,0,0-3.32-.86,6.83,6.83,0,0,0-4.09,1.36,5.57,5.57,0,0,1,4.09,3.21V68.16c-.09.07-1.87,1.43-2.81,2.17a4.47,4.47,0,0,1,2.81,2.16v18a5.72,5.72,0,0,1-3.73,3.33,4.56,4.56,0,0,0,.53.13C116.29,94.11,116.11,94.21,115.93,94.32Zm6.77-23.1c0-1.91,0-3.79,0-5.58,0-2.19.08-4.24.12-6s.09-3.22.12-4.24.06-1.61.06-1.61,0,.59,0,1.61.07,2.48.09,4.24.07,3.8.07,6c0,1.77,0,3.65,0,5.54a1.85,1.85,0,0,1,.45,1.31,1.71,1.71,0,0,1-.46,1.38c0,1.88,0,3.74-.05,5.5,0,2.19-.08,4.24-.12,6q0,1.32-.06,2.4c0,.71,0,1.33,0,1.84,0,1,0,1.61,0,1.61s0-.58-.09-1.61c0-.51-.05-1.13-.09-1.84s0-1.52,0-2.39c0-1.76-.07-3.8-.07-6,0-1.81,0-3.72,0-5.64a2,2,0,0,1-.36-1.22A1.85,1.85,0,0,1,122.7,71.22Z"/><path class="cls-2" d="M115.93,94.32c.18-.11.36-.21.53-.33a4.56,4.56,0,0,1-.53-.13,5.11,5.11,0,0,1-.53.13C115.57,94.11,115.75,94.21,115.93,94.32Z"/><path class="cls-3" d="M139.22,120.59s-6.87-4.12-12.16-6.79c-1.12.47-2.27,1-3.39,1.45l.1,0c.25.08.49.17.74.27l.74.3.38.16.38.18.38.19.37.19.37.2.37.21.37.22.35.22.71.45.67.47.65.47c.42.32.82.63,1.19.94s.72.61,1,.89l.84.78.62.63c.34.36.52.57.52.57l-2.28-1.6c-.68-.48-1.48-1-2.35-1.6l-.12-.08.09.06c.29.21.58.41.85.62.56.4,1.08.82,1.58,1.22s.95.78,1.36,1.14.79.71,1.12,1,.6.58.83.81c.46.46.7.73.7.73l-.81-.6-.93-.69-1.21-.88-1.44-1-1.62-1.12q-.85-.57-1.77-1.14l-.45-.29-.46-.28-.47-.28-.47-.27-.47-.28-.47-.26-.48-.26-.47-.24-.48-.24-.47-.22-.47-.23-.47-.21c-.3-.14-.61-.26-.9-.39l-1.35.64,1.13.58a98.46,98.46,0,0,1,12.63,8.38s10.51,10.83,13.8,6.26S139.22,120.59,139.22,120.59ZM147,130a1.34,1.34,0,1,1-1.33-1.33A1.34,1.34,0,0,1,147,130Z"/><path class="cls-3" d="M101.77,106.47c-.89,2.57,3.73,4.4,3.73,4.4s3.21,1,7.06,2.45c1.35-.7,2.63-1.33,3.72-1.8.81-.36,1.77-.76,2.81-1.19-5.19-2.07-11-4.26-11-4.26S102.65,103.91,101.77,106.47Zm4.06,2.83a.84.84,0,1,1,.85-.84A.85.85,0,0,1,105.83,109.3Z"/><path class="cls-3" d="M152.18,104.41c-1.74.18-3.29.32-4.66.43v0l-8.07.4a3,3,0,0,1,0,1.94,3.13,3.13,0,0,1-1,1.67l8.3-1,.75-1.89c.11.94.46,3.65,1,4.47.32.44,1.36.57,2.43.57a22,22,0,0,0,2.8-.21l23.4-2.34a.63.63,0,0,0,.18,0c.34,0,1.18-.21,2.35-1.89,1.56-2.23,0-5.11,0-5.11Zm27.06,1.89c-1.11,1.58-1.79,1.63-1.86,1.63h0l-.09,0h-.15l-23.4,2.35h0a22.73,22.73,0,0,1-2.72.2c-1.67,0-1.94-.31-1.94-.32-.46-.63-.84-3.11-1-4.52l0-.22h0a2.32,2.32,0,0,0,.61,1.45l.83,1s2.4.28,14.67-1.13,14.52-2,14.52-2,.32-.06.52-1.12a4.12,4.12,0,0,0,0-1.46h.07A4.46,4.46,0,0,1,179.24,106.3Z"/><path class="cls-3" d="M139,105.83c-.88-2.57-6.3-.4-6.3-.4s-11,4.13-16.24,6.42S101.5,120,101.5,120s-12.19,6.73-8.9,11.31S106.4,125,106.4,125A97.64,97.64,0,0,1,119,116.62c5.8-3.1,16.19-6.4,16.19-6.4S139.84,108.4,139,105.83ZM95.11,130.69a1.34,1.34,0,1,1,1.34-1.34A1.34,1.34,0,0,1,95.11,130.69Zm29.46-17.38-.71.22-1.09.36-1.41.5-.8.3c-.27.11-.56.21-.85.34l-.88.36-.92.4-.47.21-.47.22-.48.23-.47.24-.47.24-.48.26-.48.26-.47.27-.47.27-.46.29-.46.28-.46.28c-.6.38-1.19.77-1.76,1.15l-1.63,1.11-1.44,1-1.21.88-.93.68-.81.61s.25-.28.7-.73l.84-.81c.32-.31.7-.65,1.11-1s.87-.75,1.37-1.15,1-.81,1.57-1.22c.28-.21.57-.41.86-.61l.08-.06-.12.08c-.86.57-1.66,1.12-2.34,1.59L106.28,122s.18-.22.52-.57c.17-.18.37-.39.62-.63s.52-.5.83-.78.66-.59,1-.89.77-.63,1.19-.94l.65-.47.68-.47c.23-.15.46-.31.7-.45l.36-.23.36-.21.37-.21.38-.2.36-.2.39-.18.37-.18.38-.16.75-.31.73-.26.71-.24c.46-.14.9-.26,1.31-.36l1.12-.25.88-.14c.48-.07.76-.09.76-.09l-.72.25c-.46.16-1.12.4-1.89.7l-.93.36.38-.14.93-.31c.6-.2,1.18-.36,1.71-.5s1-.25,1.47-.35l1.14-.21c.32-.06.57-.09.74-.11l.27,0Zm9.48-5.49a.84.84,0,1,1,1.68,0,.84.84,0,0,1-1.68,0Z"/><path class="cls-3" d="M93.2,106.66l.76,1.89,8.3,1a3.46,3.46,0,0,1-1-3.61l-8.08-.39v0c-1.37-.11-2.92-.25-4.65-.43L61,102.17s-1.56,2.88,0,5.12c1.18,1.67,2,1.88,2.36,1.88a.59.59,0,0,0,.17,0l23.4,2.35a23.35,23.35,0,0,0,2.8.2c1.08,0,2.12-.12,2.44-.56C92.75,110.31,93.1,107.61,93.2,106.66Zm-3.48,4.44a22.45,22.45,0,0,1-2.71-.2h0l-23.4-2.35h-.14l-.09,0h0c-.08,0-.75,0-1.86-1.63a4.45,4.45,0,0,1-.13-4.12h.08a4,4,0,0,0,0,1.46c.2,1.07.52,1.12.52,1.12s2.25.6,14.52,2,14.68,1.12,14.68,1.12l.82-1a2.3,2.3,0,0,0,.61-1.46h0l0,.23a14.92,14.92,0,0,1-1,4.52S91.4,111.1,89.72,111.1Z"/></g></svg>